<?xml version="1.0"?>
<svg xmlns="http://www.w3.org/2000/svg" xmlns:xlink="http://www.w3.org/1999/xlink" xmlns:svgjs="http://svgjs.com/svgjs" version="1.1" width="512" height="512" x="0" y="0" viewBox="0 0 512 512" style="enable-background:new 0 0 512 512" xml:space="preserve" class=""><g>
<polygon xmlns="http://www.w3.org/2000/svg" style="" points="256,419.284 256,491.396 357.473,470.793 357.473,439.887 " fill="#7e634e" data-original="#ff9c4f"/>
<g xmlns="http://www.w3.org/2000/svg">
	<polygon style="" points="256,419.284 154.527,439.887 154.527,470.793 256,491.396 326.567,470.793 326.567,439.887     " fill="#ffb751" data-original="#ffb751" class=""/>
	<path style="" d="M367.775,470.793h-20.604V512h20.604c11.383,0,20.604-9.22,20.604-20.604   S379.158,470.793,367.775,470.793z" fill="#ffb751" data-original="#ffb751" class=""/>
</g>
<path xmlns="http://www.w3.org/2000/svg" style="" d="M336.869,470.793c11.383,0,20.604,9.22,20.604,20.604S358.555,512,347.171,512H144.225  c-11.383,0-20.604-9.22-20.604-20.604s9.22-20.604,20.604-20.604h120.016H336.869z" fill="#ffcb34" data-original="#ffd764" class=""/>
<g xmlns="http://www.w3.org/2000/svg">
	<polygon style="" points="378.076,51.509 460.491,139.074 419.284,128.773 398.68,128.773  " fill="#ffb751" data-original="#ffb751" class=""/>
	<polygon style="" points="133.924,51.509 51.509,139.074 92.716,128.773 113.32,128.773  " fill="#ffb751" data-original="#ffb751" class=""/>
</g>
<g xmlns="http://www.w3.org/2000/svg">
	<path style="" d="M294.683,326.67l-16.534-201.38L256,51.509l-22.149,73.782l-16.534,201.38   c-1.391,16.936-16.431,30.802-33.429,30.802L256,378.076l72.113-20.604C311.115,357.473,296.074,343.607,294.683,326.67z" fill="#ffcb34" data-original="#ffd764" class=""/>
	<path style="" d="M466.435,257.813c9.354,17.41,14.659,37.313,14.659,58.452c0,68.27-55.352,123.622-123.622,123.622   H154.527c-68.27,0-123.622-55.352-123.622-123.622c0-21.139,5.305-41.042,14.67-58.452l39.806-74.06   c4.677-8.705,7.335-18.657,7.335-29.226v-25.755l41.207-77.264v103.018c0,16.988-4.234,33.841-12.249,48.738l-39.806,74.06   c-6.47,12.043-9.756,25.136-9.756,38.941c0,0.422,0,0.855,0.021,1.277c0.68,44.854,37.375,66.715,82.394,66.715h202.946   c45.019,0,81.714-21.86,82.394-66.715c0.021-0.422,0.021-0.855,0.021-1.277c0-13.804-3.286-26.898-9.756-38.941l-39.806-74.06   c-8.015-14.896-12.249-31.75-12.249-48.738V51.509l41.207,77.264v25.755c0,10.57,2.658,20.521,7.335,29.226L466.435,257.813z" fill="#ffcb34" data-original="#ffd764" class=""/>
</g>
<path xmlns="http://www.w3.org/2000/svg" style="" d="M398.68,357.473H113.32c-22.303,0-40.507-17.791-41.187-39.93  c0.68,44.854,37.375,81.137,82.394,81.137h202.946c45.019,0,81.714-36.283,82.394-81.137  C439.187,339.682,420.983,357.473,398.68,357.473z" fill="#ffe7a3" data-original="#ffe7a3" class=""/>
<polygon xmlns="http://www.w3.org/2000/svg" style="" points="256,0 333.264,139.074 256,118.953 235.396,59.476 " fill="#ffb751" data-original="#ffb751" class=""/>
<polygon xmlns="http://www.w3.org/2000/svg" style="" points="256,0 178.736,139.074 256,118.953 " fill="#ffcb34" data-original="#ffd764" class=""/>
<g xmlns="http://www.w3.org/2000/svg">
</g>
<g xmlns="http://www.w3.org/2000/svg">
</g>
<g xmlns="http://www.w3.org/2000/svg">
</g>
<g xmlns="http://www.w3.org/2000/svg">
</g>
<g xmlns="http://www.w3.org/2000/svg">
</g>
<g xmlns="http://www.w3.org/2000/svg">
</g>
<g xmlns="http://www.w3.org/2000/svg">
</g>
<g xmlns="http://www.w3.org/2000/svg">
</g>
<g xmlns="http://www.w3.org/2000/svg">
</g>
<g xmlns="http://www.w3.org/2000/svg">
</g>
<g xmlns="http://www.w3.org/2000/svg">
</g>
<g xmlns="http://www.w3.org/2000/svg">
</g>
<g xmlns="http://www.w3.org/2000/svg">
</g>
<g xmlns="http://www.w3.org/2000/svg">
</g>
<g xmlns="http://www.w3.org/2000/svg">
</g>
</g></svg>
